<?xml version="1.0" standalone="no"?>
<!DOCTYPE svg PUBLIC "-//W3C//DTD SVG 20010904//EN"
 "http://www.w3.org/TR/2001/REC-SVG-20010904/DTD/svg10.dtd">
<svg version="1.0" xmlns="http://www.w3.org/2000/svg"
 width="512.000000pt" height="512.000000pt" viewBox="0 0 512.000000 512.000000"
 preserveAspectRatio="xMidYMid meet">
<metadata>
Created by potrace 1.14, written by Peter Selinger 2001-2017
</metadata>
<g transform="translate(0.000000,512.000000) scale(0.100000,-0.100000)"
fill="#000000" stroke="none">
<path d="M2357 4167 c-21 -67 -60 -189 -87 -272 -26 -82 -78 -244 -115 -360
-78 -245 -129 -406 -215 -674 -34 -107 -63 -200 -64 -207 -1 -8 -5 -17 -9 -20
-20 -20 -13 -23 173 -82 69 -22 213 -68 320 -102 107 -34 263 -83 345 -110 83
-27 242 -78 355 -113 247 -78 254 -81 260 -82 3 -1 12 -5 20 -8 8 -3 132 -43
275 -87 143 -45 267 -84 275 -87 70 -27 316 -100 321 -94 4 3 33 87 64 186 31
99 65 205 75 235 11 30 44 136 75 235 32 99 70 218 85 265 15 47 53 164 83
260 31 96 79 247 107 334 27 88 49 160 48 162 -3 2 -220 72 -828 266 -436 139
-553 176 -715 228 -189 61 -408 131 -420 134 -5 1 -89 28 -186 59 -97 31 -183
57 -190 57 -9 0 -28 -45 -52 -123z"/>
<path d="M1111 3318 c-183 -37 -332 -116 -465 -246 -108 -106 -185 -230 -230
-372 -36 -115 -37 -120 -43 -238 -18 -344 152 -663 447 -838 277 -164 604
-173 898 -25 112 57 254 179 320 276 15 22 29 42 33 45 3 3 24 43 47 90 49
102 88 246 91 338 l2 67 -456 0 c-250 0 -455 2 -455 5 0 3 144 149 319 323
176 175 318 323 315 330 -8 18 -101 91 -174 135 -188 113 -431 154 -649 110z"/>
<path d="M2796 2173 c-4 -4 -151 -12 -227 -13 -52 0 -61 -4 -129 -55 -41 -31
-109 -76 -151 -100 -72 -43 -77 -48 -103 -110 -16 -35 -26 -65 -24 -67 1 -2
-7 -17 -20 -35 -12 -17 -22 -33 -22 -36 0 -3 -15 -32 -34 -65 -19 -33 -33 -62
-31 -64 7 -7 17 -121 21 -230 l4 -118 52 -72 c29 -40 73 -105 98 -146 25 -41
52 -79 60 -83 8 -4 64 -31 124 -59 60 -28 126 -62 147 -75 20 -13 46 -23 56
-21 50 10 158 19 244 21 l97 2 73 54 c41 29 106 73 145 95 38 23 75 48 80 56
6 7 26 49 44 93 19 44 53 112 76 152 23 39 41 73 39 75 -5 6 -17 145 -21 247
-4 104 -4 105 -44 160 -22 31 -67 100 -101 153 -58 93 -63 98 -117 118 -55 20
-214 102 -239 122 -10 8 -89 9 -97 1z"/>
</g>
</svg>
